<?xml version="1.0" encoding="UTF-8"?>
<svg viewBox="0 0 870 112" version="1.1">
  <g id="Page-1" stroke="none" stroke-width="1" fill="none" fill-rule="evenodd">
    <g id="react-boilerplate">
      <g id="logo">
        <circle id="circle" fill="#5BCCEB" fill-rule="nonzero" cx="56" cy="56" r="56"></circle>
        <g id="icon" transform="translate(24.000000, 21.000000)" fill="#1F4752">
          <polygon id="Rectangle" transform="translate(28.783441, 42.345303) rotate(-45.000000) translate(-28.783441, -42.345303) " points="27.570235 37.543971 29.9410913 37.5577072 29.9966471 47.1466358 27.6257907 47.1328997"></polygon>
          <path d="M59.1797114,24.0958929 C59.290938,23.6892857 59.1725355,23.2555714 58.8699514,22.9573929 L47.3514234,11.6065714 L48.2460199,8.30303571 C50.5195867,8.24410714 52.3530311,6.41142857 52.3530311,4.15682143 C52.3530311,1.86567857 50.4609835,0 48.1359893,0 C45.8097992,0 43.9177515,1.86567857 43.9177515,4.15682143 C43.9177515,5.65360714 44.7310211,6.95592857 45.9389656,7.689 L45.047957,10.9795714 L29.2777037,15.1434643 C28.865089,15.2518929 28.5433691,15.5701071 28.4321426,15.9767143 L24.2115128,31.4996786 L8.70078817,35.5952143 L7.91502627,34.8208929 C8.23674614,34.2339643 8.43647557,33.5739643 8.43647557,32.8621071 C8.43647557,30.5697857 6.54442789,28.7052857 4.21823779,28.7052857 C1.89204768,28.7052857 0,30.5709643 0,32.8621071 C0,35.15325 1.89204768,37.0189286 4.21823779,37.0189286 C4.95018038,37.0189286 5.62949965,36.8173929 6.22988393,36.4932857 L7.32301388,37.5705 L3.2136107,52.6715357 C3.10238413,53.0781429 3.2207866,53.5118571 3.52337072,53.8100357 L15.5430162,65.6546786 C15.7690573,65.8786071 16.0752294,66 16.3885774,66 C16.491432,66 16.5954827,65.9870357 16.6983374,65.9599286 L33.1180104,61.6239643 C33.530625,61.5155357 33.8523449,61.1973214 33.9635715,60.7907143 L38.1830053,45.2689286 L53.2679594,41.2853571 L59.3088777,47.2383214 L61,45.5718214 L54.9590816,39.6200357 L59.1797114,24.0958929 Z M48.1359893,2.35714286 C49.1430084,2.35714286 49.9610619,3.16446429 49.9610619,4.15682143 C49.9610619,5.14917857 49.1418124,5.9565 48.1359893,5.9565 C47.1301663,5.9565 46.3097208,5.14917857 46.3097208,4.15682143 C46.3097208,3.16446429 47.1289703,2.35714286 48.1359893,2.35714286 Z M4.21584582,34.6617857 C3.20882676,34.6617857 2.38957729,33.8544643 2.38957729,32.8621071 C2.38957729,31.86975 3.21002274,31.0624286 4.21584582,31.0624286 C5.22166889,31.0624286 6.04211434,31.86975 6.04211434,32.8621071 C6.04211434,33.8544643 5.22286487,34.6617857 4.21584582,34.6617857 Z M31.8311309,59.52375 L16.7461768,63.5073214 L5.70365069,52.6255714 L9.74607874,37.76025 L24.8298369,33.7778571 L35.872363,44.6596071 L31.8311309,59.52375 Z M37.5634852,42.9919286 L26.5209591,32.1101786 L30.5633872,17.2448571 L45.6483413,13.2612857 L56.6908674,24.1430357 L52.6484393,39.0083571 L37.5634852,42.9919286 Z" id="Shape" fill-rule="nonzero"></path>
          <path d="M53.6522981,23.9845483 L50.6760126,21 L49,22.6806656 L51.4926835,25.1802694 L49.5689435,32.3843106 L51.8589409,33 L53.9592905,25.1327258 C54.0695233,24.7226624 53.9521787,24.2852615 53.6522981,23.9845483 Z" id="Path"></path>
        </g>
      </g>
      <path d="M173.917969,36.7597656 L173.917969,54.7773438 L183.366211,54.7773438 C189.298828,54.7773438 192.814453,51.3056641 192.814453,45.8125 C192.814453,40.4072266 189.079102,36.7597656 183.322266,36.7597656 L173.917969,36.7597656 Z M173.917969,65.8076172 L173.917969,88 L157.790039,88 L157.790039,24.5869141 L184.948242,24.5869141 C200.768555,24.5869141 209.293945,32.4091797 209.293945,45.5048828 C209.293945,53.2832031 205.382812,60.4023438 198.439453,63.4345703 L211.139648,88 L193.03418,88 L182.135742,65.8076172 L173.917969,65.8076172 Z M237.603906,50.0751953 C232.813867,50.0751953 229.254297,53.6347656 228.858789,58.6005859 L246.261133,58.6005859 C245.997461,53.5029297 242.525781,50.0751953 237.603906,50.0751953 Z M246.612695,72.8828125 L260.675195,72.8828125 C259.181055,82.7705078 250.391992,89.1425781 237.867578,89.1425781 C222.618555,89.1425781 213.521875,79.7822266 213.521875,64.3134766 C213.521875,48.8447266 222.706445,39.0009766 237.340234,39.0009766 C251.754297,39.0009766 260.938867,48.4492188 260.938867,63.0830078 L260.938867,67.4775391 L228.639063,67.4775391 L228.639063,68.4443359 C228.639063,74.1572266 232.462305,78.1123047 238.087305,78.1123047 C242.262109,78.1123047 245.514063,76.1347656 246.612695,72.8828125 Z M286.128711,77.9804688 C290.874805,77.9804688 295.005664,75.0800781 295.005664,70.8173828 L295.005664,67.5214844 L286.304492,68.0927734 C282.217578,68.4003906 279.932422,70.2900391 279.932422,73.1025391 C279.932422,76.1347656 282.437305,77.9804688 286.128711,77.9804688 Z M280.591602,88.703125 C271.714648,88.703125 264.507617,82.8144531 264.507617,74.1572266 C264.507617,65.1923828 271.407031,60.1826172 283.799609,59.4355469 L295.005664,58.7763672 L295.005664,56.0517578 C295.005664,52.2285156 292.281055,50.1191406 288.194141,50.1191406 C283.975391,50.1191406 281.294727,52.3164062 280.855273,55.2607422 L266.836719,55.2607422 C267.276172,45.4609375 275.625781,39.0009766 288.985156,39.0009766 C301.773242,39.0009766 310.254688,45.5488281 310.254688,55.1728516 L310.254688,88 L295.093555,88 L295.093555,81.1884766 L294.785938,81.1884766 C292.193164,86.0224609 286.348438,88.703125 280.591602,88.703125 Z M362.426953,59.0400391 L348.100781,59.0400391 C347.573438,54.0742188 344.585156,50.8662109 340.058789,50.8662109 C334.565625,50.8662109 331.357617,55.6123047 331.357617,64.0498047 C331.357617,72.5751953 334.565625,77.3212891 340.058789,77.3212891 C344.629102,77.3212891 347.573438,74.3769531 348.144727,69.4111328 L362.426953,69.4111328 C362.031445,81.5839844 353.374219,89.1425781 339.883008,89.1425781 C324.897656,89.1425781 315.58125,79.7382812 315.58125,64.0498047 C315.58125,48.5371094 324.897656,39.0009766 339.795117,39.0009766 C353.286328,39.0009766 362.031445,47.0429688 362.426953,59.0400391 Z M371.400977,29.4208984 L387.001563,29.4208984 L387.001563,40.1435547 L395.614844,40.1435547 L395.614844,51.6132812 L387.001563,51.6132812 L387.001563,71.6962891 C387.001563,74.9921875 388.759375,76.6621094 392.494727,76.6621094 C393.725195,76.6621094 394.648047,76.6181641 395.570899,76.4423828 L395.570899,87.5166016 C394.076758,87.8242188 391.791602,88.0878906 388.759375,88.0878906 C376.322852,88.0878906 371.400977,84.2646484 371.400977,74.8603516 L371.400977,51.6132812 L364.89707,51.6132812 L364.89707,40.1435547 L371.400977,40.1435547 L371.400977,29.4208984 Z M449.510156,88 L419.231836,88 L419.231836,24.5869141 L448.719141,24.5869141 C461.19961,24.5869141 468.714258,30.6074219 468.714258,40.4072266 C468.714258,47.5263672 463.35293,53.1953125 456.32168,54.1621094 L456.32168,54.5136719 C464.891016,54.9091797 471.658594,61.28125 471.658594,69.71875 C471.658594,80.8369141 463.089258,88 449.510156,88 Z M435.359766,36.0126953 L435.359766,50.4267578 L443.66543,50.4267578 C449.510156,50.4267578 453.025781,47.6582031 453.025781,43.0878906 C453.025781,38.6494141 449.861719,36.0126953 444.456445,36.0126953 L435.359766,36.0126953 Z M435.359766,76.5742188 L444.939844,76.5742188 C451.575586,76.5742188 455.266992,73.6738281 455.266992,68.3125 C455.266992,63.1269531 451.487695,60.2265625 444.851953,60.2265625 L435.359766,60.2265625 L435.359766,76.5742188 Z M499.792774,89.1425781 C484.719531,89.1425781 475.315235,80.0019531 475.315235,64.0498047 C475.315235,48.4052734 484.939258,39.0009766 499.792774,39.0009766 C514.73418,39.0009766 524.270313,48.3613281 524.270313,64.0498047 C524.270313,80.0458984 514.866016,89.1425781 499.792774,89.1425781 Z M499.792774,77.7167969 C505.110156,77.7167969 508.493945,72.8388672 508.493945,64.09375 C508.493945,55.4804688 505.110156,50.4267578 499.792774,50.4267578 C494.519336,50.4267578 491.135547,55.4804688 491.135547,64.09375 C491.135547,72.8388672 494.431445,77.7167969 499.792774,77.7167969 Z M529.772656,88 L529.772656,40.1435547 L545.329297,40.1435547 L545.329297,88 L529.772656,88 Z M537.463086,34.6943359 C533.200391,34.6943359 529.816602,31.2666016 529.816602,27.1796875 C529.816602,23.0488281 533.200391,19.6210938 537.463086,19.6210938 C541.769727,19.6210938 545.153516,23.0488281 545.153516,27.1796875 C545.153516,31.2666016 541.769727,34.6943359 537.463086,34.6943359 Z M552.545508,88 L552.545508,24.5869141 L568.146094,24.5869141 L568.146094,88 L552.545508,88 Z M597.862305,50.0751953 C593.072266,50.0751953 589.512696,53.6347656 589.117188,58.6005859 L606.519531,58.6005859 C606.25586,53.5029297 602.78418,50.0751953 597.862305,50.0751953 Z M606.871094,72.8828125 L620.933594,72.8828125 C619.439453,82.7705078 610.650391,89.1425781 598.125977,89.1425781 C582.876953,89.1425781 573.780274,79.7822266 573.780274,64.3134766 C573.780274,48.8447266 582.964844,39.0009766 597.598633,39.0009766 C612.012696,39.0009766 621.197266,48.4492188 621.197266,63.0830078 L621.197266,67.4775391 L588.897461,67.4775391 L588.897461,68.4443359 C588.897461,74.1572266 592.720703,78.1123047 598.345703,78.1123047 C602.520508,78.1123047 605.772461,76.1347656 606.871094,72.8828125 Z M626.567774,88 L626.567774,40.1435547 L641.728907,40.1435547 L641.728907,49.1962891 L642.036524,49.1962891 C643.794336,42.7363281 647.661524,39.4404297 653.286524,39.4404297 C654.868555,39.4404297 656.186914,39.6601562 657.241602,40.0556641 L657.241602,53.3271484 C655.923242,52.7998047 654.121485,52.4482422 652.275782,52.4482422 C645.72793,52.4482422 642.16836,56.1396484 642.16836,62.8193359 L642.16836,88 L626.567774,88 Z M691.616016,39.4404297 C703.700977,39.4404297 710.732227,48.4492188 710.732227,64.09375 C710.732227,79.6943359 703.744922,88.703125 691.835742,88.703125 C684.804492,88.703125 679.531055,85.3632812 677.201953,79.8261719 L676.894336,79.8261719 L676.894336,103.46875 L661.29375,103.46875 L661.29375,40.1435547 L676.806446,40.1435547 L676.806446,48.6689453 L677.114063,48.6689453 C679.531055,42.9121094 684.716602,39.4404297 691.616016,39.4404297 Z M685.815235,76.5302734 C691.352344,76.5302734 694.824024,71.6962891 694.824024,64.09375 C694.824024,56.4912109 691.308399,51.6132812 685.815235,51.6132812 C680.366016,51.6132812 676.850391,56.5351562 676.806446,64.09375 C676.850391,71.6962891 680.322071,76.5302734 685.815235,76.5302734 Z M716.410352,88 L716.410352,24.5869141 L732.010938,24.5869141 L732.010938,88 L716.410352,88 Z M758.914649,77.9804688 C763.660743,77.9804688 767.791602,75.0800781 767.791602,70.8173828 L767.791602,67.5214844 L759.09043,68.0927734 C755.003516,68.4003906 752.71836,70.2900391 752.71836,73.1025391 C752.71836,76.1347656 755.223243,77.9804688 758.914649,77.9804688 Z M753.377539,88.703125 C744.500586,88.703125 737.293555,82.8144531 737.293555,74.1572266 C737.293555,65.1923828 744.192969,60.1826172 756.585547,59.4355469 L767.791602,58.7763672 L767.791602,56.0517578 C767.791602,52.2285156 765.066993,50.1191406 760.980078,50.1191406 C756.761328,50.1191406 754.080664,52.3164062 753.641211,55.2607422 L739.622657,55.2607422 C740.06211,45.4609375 748.411719,39.0009766 761.771094,39.0009766 C774.55918,39.0009766 783.040625,45.5488281 783.040625,55.1728516 L783.040625,88 L767.879493,88 L767.879493,81.1884766 L767.571875,81.1884766 C764.979102,86.0224609 759.134375,88.703125 753.377539,88.703125 Z M793.728516,29.4208984 L809.329102,29.4208984 L809.329102,40.1435547 L817.942383,40.1435547 L817.942383,51.6132812 L809.329102,51.6132812 L809.329102,71.6962891 C809.329102,74.9921875 811.086914,76.6621094 814.822266,76.6621094 C816.052735,76.6621094 816.975586,76.6181641 817.898438,76.4423828 L817.898438,87.5166016 C816.404297,87.8242188 814.119141,88.0878906 811.086914,88.0878906 C798.650391,88.0878906 793.728516,84.2646484 793.728516,74.8603516 L793.728516,51.6132812 L787.22461,51.6132812 L787.22461,40.1435547 L793.728516,40.1435547 L793.728516,29.4208984 Z M846.340235,50.0751953 C841.550196,50.0751953 837.990625,53.6347656 837.595118,58.6005859 L854.997461,58.6005859 C854.733789,53.5029297 851.26211,50.0751953 846.340235,50.0751953 Z M855.349024,72.8828125 L869.411524,72.8828125 C867.917383,82.7705078 859.128321,89.1425781 846.603907,89.1425781 C831.354883,89.1425781 822.258204,79.7822266 822.258204,64.3134766 C822.258204,48.8447266 831.442774,39.0009766 846.076563,39.0009766 C860.490625,39.0009766 869.675196,48.4492188 869.675196,63.0830078 L869.675196,67.4775391 L837.375391,67.4775391 L837.375391,68.4443359 C837.375391,74.1572266 841.198633,78.1123047 846.823633,78.1123047 C850.998438,78.1123047 854.250391,76.1347656 855.349024,72.8828125 Z" id="ReactBoilerplate" fill="#1F4752" fill-rule="nonzero"></path>
    </g>
  </g>
</svg>
